nColumns=19
nRows=170
DataType=double
version=3
OpenSimVersion=4.1
endheader
time	ground_force_calcn_r_vx	ground_force_calcn_r_vy	ground_force_calcn_r_vz	ground_force_calcn_r_px	ground_force_calcn_r_py	ground_force_calcn_r_pz	ground_force_calcn_r_mx	ground_force_calcn_r_my	ground_force_calcn_r_mz	ground_force_calcn_l_vx	ground_force_calcn_l_vy	ground_force_calcn_l_vz	ground_force_calcn_l_px	ground_force_calcn_l_py	ground_force_calcn_l_pz	ground_force_calcn_l_mx	ground_force_calcn_l_my	ground_force_calcn_l_mz
1.96	413.885	1062.83	-64.5158	0.464022	0	-0.225163	9.32625	23.9492	-1.45376	0	0	0	0	0	0	0	0	0
1.965	403.087	859.876	-32.5801	0.403885	0	-0.228208	2.22162	4.73922	-0.179565	0	0	0	0	0	0	0	0	0
1.97	364.038	677.263	13.3617	0.365117	0	-0.241365	-10.9867	-20.4398	-0.403257	0	0	0	0	0	0	0	0	0
1.975	301.812	513.718	47.0291	0.365052	0	-0.256989	-19.4627	-33.1278	-3.03274	0	0	0	0	0	0	0	0	0
1.98	235.148	359.097	47.2682	0.379812	0	-0.262797	-16.5313	-25.2452	-3.32304	0	0	0	0	0	0	0	0	0
1.985	181.513	216.494	18.7327	0.381998	0	-0.248562	-6.16756	-7.35615	-0.636511	0	0	0	0	0	0	0	0	0
1.99	143.877	103.667	-13.6086	0.35252	0	-0.186321	3.50211	2.52334	-0.331246	0	0	0	0	0	0	0	0	0
1.995	113.021	30.9989	-26.8161	0.352837	0	-0.125838	2.88374	0.790939	-0.684214	0	0	0	0	0	0	0	0	0
2	0	0	0	0	0	0	0	0	0	0	0	0	0	0	0	0	0	0
2.005	0	0	0	0	0	0	0	0	0	0	0	0	0	0	0	0	0	0
2.01	0	0	0	0	0	0	0	0	0	0	0	0	0	0	0	0	0	0
2.015	0	0	0	0	0	0	0	0	0	0	0	0	0	0	0	0	0	0
2.02	0	0	0	0	0	0	0	0	0	0	0	0	0	0	0	0	0	0
2.025	0	0	0	0	0	0	0	0	0	0	0	0	0	0	0	0	0	0
2.03	0	0	0	0	0	0	0	0	0	0	0	0	0	0	0	0	0	0
2.035	0	0	0	0	0	0	0	0	0	0	0	0	0	0	0	0	0	0
2.04	0	0	0	0	0	0	0	0	0	0	0	0	0	0	0	0	0	0
2.045	0	0	0	0	0	0	0	0	0	0	0	0	0	0	0	0	0	0
2.05	0	0	0	0	0	0	0	0	0	0	0	0	0	0	0	0	0	0
2.055	0	0	0	0	0	0	0	0	0	0	0	0	0	0	0	0	0	0
2.06	0	0	0	0	0	0	0	0	0	0	0	0	0	0	0	0	0	0
2.065	0	0	0	0	0	0	0	0	0	0	0	0	0	0	0	0	0	0
2.07	0	0	0	0	0	0	0	0	0	0	0	0	0	0	0	0	0	0
2.075	0	0	0	0	0	0	0	0	0	0	0	0	0	0	0	0	0	0
2.08	0	0	0	0	0	0	0	0	0	0	0	0	0	0	0	0	0	0
2.085	0	0	0	0	0	0	0	0	0	0	0	0	0	0	0	0	0	0
2.09	0	0	0	0	0	0	0	0	0	0	0	0	0	0	0	0	0	0
2.095	0	0	0	0	0	0	0	0	0	0	0	0	0	0	0	0	0	0
2.1	0	0	0	0	0	0	0	0	0	0	0	0	0	0	0	0	0	0
2.105	0	0	0	0	0	0	0	0	0	0	0	0	0	0	0	0	0	0
2.11	0	0	0	0	0	0	0	0	0	0	0	0	0	0	0	0	0	0
2.115	0	0	0	0	0	0	0	0	0	0	0	0	0	0	0	0	0	0
2.12	0	0	0	0	0	0	0	0	0	0	0	0	0	0	0	0	0	0
2.125	0	0	0	0	0	0	0	0	0	0	0	0	0	0	0	0	0	0
2.13	0	0	0	0	0	0	0	0	0	-29.613	32.0782	-6.5409	1.20175	0	-0.289845	1.62624	-1.76162	0.359202
2.135	0	0	0	0	0	0	0	0	0	-70.8495	138.476	6.76153	1.15199	0	-0.347068	0.336034	-0.656783	-0.0320694
2.14	0	0	0	0	0	0	0	0	0	-120.154	311.891	34.0267	1.0499	0	-0.369974	-0.498357	1.29362	0.141131
2.145	0	0	0	0	0	0	0	0	0	-162.392	541.88	77.1534	1.04818	0	-0.356393	-0.885836	2.95592	0.420866
2.15	0	0	0	0	0	0	0	0	0	-181.081	788.025	129.354	1.0447	0	-0.344772	-1.042	4.53456	0.744343
2.155	0	0	0	0	0	0	0	0	0	-176.864	1012.74	167.244	1.03797	0	-0.335118	-0.587928	3.36654	0.555946
2.16	0	0	0	0	0	0	0	0	0	-175.697	1202.58	162.694	1.02407	0	-0.328158	0.594249	-4.06741	-0.55027
2.165	0	0	0	0	0	0	0	0	0	-198.776	1357.47	107.307	1.00412	0	-0.324465	1.93886	-13.2408	-1.04667
2.17	0	0	0	0	0	0	0	0	0	-239.419	1481.84	24.366	0.984638	0	-0.323823	2.29497	-14.2043	-0.233563
2.175	0	0	0	0	0	0	0	0	0	-284.118	1592.53	-47.3998	0.968668	0	-0.324976	0.893845	-5.01017	0.149122
2.18	0	0	0	0	0	0	0	0	0	-324.201	1706.75	-82.3961	0.954616	0	-0.32607	-1.18498	6.23834	-0.301166
2.185	0	0	0	0	0	0	0	0	0	-351.32	1833.74	-76.168	0.941849	0	-0.325488	-1.99233	10.3991	-0.431948
2.19	0	0	0	0	0	0	0	0	0	-362.411	1977.17	-40.701	0.929985	0	-0.323611	-1.22531	6.6848	-0.137609
2.195	0	0	0	0	0	0	0	0	0	-361.804	2129.85	7.61681	0.918635	0	-0.321913	-0.4511	2.65552	0.0094967
2.2	0	0	0	0	0	0	0	0	0	-353.631	2270.73	53.2841	0.907711	0	-0.321315	-0.682611	4.38318	0.102854
2.205	0	0	0	0	0	0	0	0	0	-339.99	2377.2	85.9983	0.89487	0	-0.32158	-1.22561	8.56941	0.31001
2.21	0	0	0	0	0	0	0	0	0	-316.495	2442.23	104.963	0.878076	0	-0.3219	-0.934864	7.21387	0.31004
2.215	0	0	0	0	0	0	0	0	0	-274.392	2475.17	114.313	0.857383	0	-0.32187	0.0555967	-0.501512	-0.0231619
2.22	0	0	0	0	0	0	0	0	0	-216.389	2492.26	114.488	0.834116	0	-0.321837	0.638571	-7.35473	-0.337858
2.225	0	0	0	0	0	0	0	0	0	-154.297	2501.57	103.714	0.81036	0	-0.322182	0.487219	-7.89917	-0.327494
2.23	0	0	0	0	0	0	0	0	0	-94.5331	2502.05	82.9629	0.7875	0	-0.322876	0.0712763	-1.8865	-0.0625525
2.235	0	0	0	0	0	0	0	0	0	-35.4803	2492.33	57.6978	0.76568	0	-0.323406	-0.0823003	5.78123	0.133836
2.24	0	0	0	0	0	0	0	0	0	26.7149	2470.87	33.0363	0.744644	0	-0.323453	0.0998249	9.23284	0.123446
2.245	0	0	0	0	0	0	0	0	0	90.7083	2434.79	10.9019	0.723874	0	-0.3231	0.378389	10.1567	0.0454773
2.25	0	0	0	0	0	0	0	0	0	150.925	2383.44	-7.5465	0.704042	0	-0.322327	0.935744	14.7774	-0.0467886
2.255	0	0	0	0	0	0	0	0	0	203.146	2317.96	-18.1256	0.687047	0	-0.320958	1.94684	22.2141	-0.173706
2.26	0	0	0	0	0	0	0	0	0	243.943	2236	-16.639	0.672954	0	-0.319118	2.66873	24.4618	-0.18203
2.265	0	0	0	0	0	0	0	0	0	273.499	2133.02	-3.61336	0.660213	0	-0.317346	1.87076	14.5901	-0.0247158
2.27	0	0	0	0	0	0	0	0	0	297.09	2007.81	16.0272	0.647519	0	-0.316203	-0.938464	-6.34238	-0.0506276
2.275	0	0	0	0	0	0	0	0	0	320.008	1860.55	33.5953	0.633146	0	-0.31592	-4.70769	-27.3708	-0.494226
2.28	0	0	0	0	0	0	0	0	0	345.325	1689.83	37.5309	0.614135	0	-0.316236	-7.19584	-35.2125	-0.782065
2.285	0	0	0	0	0	0	0	0	0	372.22	1494.88	18.7913	0.585668	0	-0.316525	-6.15435	-24.7167	-0.310699
2.29	0	0	0	0	0	0	0	0	0	397.824	1280.54	-20.953	0.543264	0	-0.315306	-0.173942	-0.559894	0.00916135
2.295	0	0	0	0	0	0	0	0	0	418.315	1059.93	-66.9331	0.486501	0	-0.309938	10.6305	26.9355	-1.70095
2.3	0	0	0	0	0	0	0	0	0	424.661	851.503	-97.6342	0.423232	0	-0.29933	22.0433	44.1999	-5.06801
2.305	0	0	0	0	0	0	0	0	0	404.474	668.26	-98.2073	0.370543	0	-0.28987	25.4382	42.0282	-6.17646
2.31	0	0	0	0	0	0	0	0	0	351.106	508.744	-71.8295	0.344537	0	-0.292843	16.9282	24.5286	-3.46318
2.315	0	0	0	0	0	0	0	0	0	273.78	361.163	-36.8468	0.343314	0	-0.311473	3.68275	4.85819	-0.495646
2.32	0	0	0	0	0	0	0	0	0	193.888	222.542	-12.9701	0.350146	0	-0.339423	-4.52314	-5.19159	0.302574
2.325	0	0	0	0	0	0	0	0	0	127.8	109.971	-6.36847	0.37239	0	-0.366545	-5.53849	-4.76581	0.275992
2.33	0	0	0	0	0	0	0	0	0	79.7708	35.8032	-10.8577	0.350579	0	-0.394665	-2.79718	-1.25545	0.380726
2.335	0	0	0	0	0	0	0	0	0	0	0	0	0	0	0	0	0	0
2.34	0	0	0	0	0	0	0	0	0	0	0	0	0	0	0	0	0	0
2.345	0	0	0	0	0	0	0	0	0	0	0	0	0	0	0	0	0	0
2.35	0	0	0	0	0	0	0	0	0	0	0	0	0	0	0	0	0	0
2.355	0	0	0	0	0	0	0	0	0	0	0	0	0	0	0	0	0	0
2.36	0	0	0	0	0	0	0	0	0	0	0	0	0	0	0	0	0	0
2.365	0	0	0	0	0	0	0	0	0	0	0	0	0	0	0	0	0	0
2.37	0	0	0	0	0	0	0	0	0	0	0	0	0	0	0	0	0	0
2.375	0	0	0	0	0	0	0	0	0	0	0	0	0	0	0	0	0	0
2.38	0	0	0	0	0	0	0	0	0	0	0	0	0	0	0	0	0	0
2.385	0	0	0	0	0	0	0	0	0	0	0	0	0	0	0	0	0	0
2.39	0	0	0	0	0	0	0	0	0	0	0	0	0	0	0	0	0	0
2.395	0	0	0	0	0	0	0	0	0	0	0	0	0	0	0	0	0	0
2.4	0	0	0	0	0	0	0	0	0	0	0	0	0	0	0	0	0	0
2.405	0	0	0	0	0	0	0	0	0	0	0	0	0	0	0	0	0	0
2.41	0	0	0	0	0	0	0	0	0	0	0	0	0	0	0	0	0	0
2.415	0	0	0	0	0	0	0	0	0	0	0	0	0	0	0	0	0	0
2.42	0	0	0	0	0	0	0	0	0	0	0	0	0	0	0	0	0	0
2.425	0	0	0	0	0	0	0	0	0	0	0	0	0	0	0	0	0	0
2.43	0	0	0	0	0	0	0	0	0	0	0	0	0	0	0	0	0	0
2.435	0	0	0	0	0	0	0	0	0	0	0	0	0	0	0	0	0	0
2.44	0	0	0	0	0	0	0	0	0	0	0	0	0	0	0	0	0	0
2.445	0	0	0	0	0	0	0	0	0	0	0	0	0	0	0	0	0	0
2.45	0	0	0	0	0	0	0	0	0	0	0	0	0	0	0	0	0	0
2.455	0	0	0	0	0	0	0	0	0	0	0	0	0	0	0	0	0	0
2.46	0	0	0	0	0	0	0	0	0	0	0	0	0	0	0	0	0	0
2.465	-48.9536	35.1413	-18.6591	1.22038	0	-0.190892	1.04075	-0.7471	0.39669	0	0	0	0	0	0	0	0	0
2.47	-85.8673	133.264	-42.2397	1.19696	0	-0.206182	1.39981	-2.17247	0.688593	0	0	0	0	0	0	0	0	0
2.475	-126.483	289.82	-71.4167	1.1499	0	-0.203904	0.953776	-2.18545	0.538534	0	0	0	0	0	0	0	0	0
2.48	-157.901	495.119	-102.598	1.12361	0	-0.21497	1.21778	-3.81851	0.79127	0	0	0	0	0	0	0	0	0
2.485	-167.186	730.32	-127.841	1.09797	0	-0.223578	1.75864	-7.68226	1.34476	0	0	0	0	0	0	0	0	0
2.49	-155.291	982.625	-137.085	1.07137	0	-0.231471	1.51642	-9.59536	1.33864	0	0	0	0	0	0	0	0	0
2.495	-144.136	1235.05	-127.473	1.04421	0	-0.237777	0.746638	-6.3977	0.660325	0	0	0	0	0	0	0	0	0
2.5	-160.863	1463.73	-106.65	1.01907	0	-0.242337	0.0268208	-0.24405	0.017782	0	0	0	0	0	0	0	0	0
2.505	-211.538	1652.93	-83.0731	0.999977	0	-0.245774	-0.744574	5.81798	-0.292401	0	0	0	0	0	0	0	0	0
2.51	-278.314	1811.21	-56.4865	0.989132	0	-0.248603	-1.79762	11.6985	-0.364844	0	0	0	0	0	0	0	0	0
2.515	-340.744	1961.46	-20.2299	0.98606	0	-0.25056	-2.96823	17.0864	-0.176223	0	0	0	0	0	0	0	0	0
2.52	-393.101	2116.16	25.4874	0.987261	0	-0.251064	-3.67174	19.7659	0.238064	0	0	0	0	0	0	0	0	0
2.525	-436.299	2267.82	66.9937	0.988004	0	-0.250114	-3.20869	16.6783	0.492694	0	0	0	0	0	0	0	0	0
2.53	-462.544	2399.86	87.2243	0.984507	0	-0.248514	-1.47377	7.6465	0.277917	0	0	0	0	0	0	0	0	0
2.535	-459.2	2500.1	77.2716	0.974158	0	-0.24754	0.0943612	-0.513747	-0.0158786	0	0	0	0	0	0	0	0	0
2.54	-422.277	2562.59	38.1541	0.95533	0	-0.247884	0.133514	-0.810228	-0.0120634	0	0	0	0	0	0	0	0	0
2.545	-358.019	2592.34	-17.9748	0.928976	0	-0.24902	-0.498902	3.61244	-0.0250479	0	0	0	0	0	0	0	0	0
2.55	-275.285	2604.79	-69.5864	0.898976	0	-0.250087	-0.670068	6.3403	-0.169379	0	0	0	0	0	0	0	0	0
2.555	-185.014	2609.56	-97.9954	0.869133	0	-0.250617	-0.490291	6.91539	-0.25969	0	0	0	0	0	0	0	0	0
2.56	-100.765	2602.01	-100.221	0.841282	0	-0.250752	-0.240472	6.20959	-0.239173	0	0	0	0	0	0	0	0	0
2.565	-31.358	2576.44	-87.0683	0.816562	0	-0.25088	-0.0738673	6.06909	-0.205099	0	0	0	0	0	0	0	0	0
2.57	24.1495	2536.43	-69.7306	0.795407	0	-0.251148	0.0896092	9.4117	-0.258743	0	0	0	0	0	0	0	0	0
2.575	73.8941	2487.1	-51.3862	0.77698	0	-0.251439	0.393526	13.2451	-0.273659	0	0	0	0	0	0	0	0	0
2.58	121.98	2426.51	-31.5151	0.759898	0	-0.251652	0.61168	12.1679	-0.158035	0	0	0	0	0	0	0	0	0
2.585	165.594	2351.57	-11.0755	0.743997	0	-0.251777	0.436912	6.2045	-0.0292221	0	0	0	0	0	0	0	0	0
2.59	202.842	2261.75	7.99768	0.72988	0	-0.251886	-0.121215	-1.35159	-0.00477929	0	0	0	0	0	0	0	0	0
2.595	237.25	2156.78	22.387	0.717214	0	-0.252118	-0.697578	-6.34149	-0.0658237	0	0	0	0	0	0	0	0	0
2.6	272.547	2034.72	28.4337	0.704851	0	-0.252258	-0.838991	-6.26356	-0.0875284	0	0	0	0	0	0	0	0	0
2.605	306.301	1892.43	22.8625	0.690863	0	-0.25228	-0.490312	-3.02932	-0.0365972	0	0	0	0	0	0	0	0	0
2.61	333.071	1726.69	5.99099	0.672219	0	-0.252091	0.330148	1.71153	0.00593841	0	0	0	0	0	0	0	0	0
2.615	351.588	1536.41	-18.0796	0.645085	0	-0.251306	2.18889	9.56528	-0.112559	0	0	0	0	0	0	0	0	0
2.62	364.183	1326.29	-39.6623	0.605505	0	-0.249462	5.05395	18.4056	-0.550413	0	0	0	0	0	0	0	0	0
2.625	369.856	1108.57	-47.4431	0.550668	0	-0.246977	7.49756	22.4725	-0.961747	0	0	0	0	0	0	0	0	0
2.63	363.312	899.108	-32.9871	0.483465	0	-0.245804	6.57155	16.263	-0.596667	0	0	0	0	0	0	0	0	0
2.635	339.156	712.832	2.22737	0.41837	0	-0.25139	-0.859451	-1.80638	-0.00564435	0	0	0	0	0	0	0	0	0
2.64	296.562	554.527	42.1263	0.377773	0	-0.267313	-12.4426	-23.2659	-1.76746	0	0	0	0	0	0	0	0	0
2.645	243.192	418.215	64.3226	0.3746	0	-0.286158	-19.7498	-33.9634	-5.22367	0	0	0	0	0	0	0	0	0
2.65	189.663	295.135	55.274	0.392538	0	-0.294986	-17.4782	-27.1979	-5.09372	0	0	0	0	0	0	0	0	0
2.655	142.555	183.705	23.0612	0.402913	0	-0.281006	-8.12131	-10.4656	-1.31379	0	0	0	0	0	0	0	0	0
2.66	102.691	92.7769	-8.04601	0.3993	0	-0.219047	1.70003	1.5359	-0.1332	0	0	0	0	0	0	0	0	0
2.665	67.7512	31.9003	-18.9246	0.413476	0	-0.119526	3.70715	1.74549	-1.0355	0	0	0	0	0	0	0	0	0
2.67	0	0	0	0	0	0	0	0	0	0	0	0	0	0	0	0	0	0
2.675	0	0	0	0	0	0	0	0	0	0	0	0	0	0	0	0	0	0
2.68	0	0	0	0	0	0	0	0	0	0	0	0	0	0	0	0	0	0
2.685	0	0	0	0	0	0	0	0	0	0	0	0	0	0	0	0	0	0
2.69	0	0	0	0	0	0	0	0	0	0	0	0	0	0	0	0	0	0
2.695	0	0	0	0	0	0	0	0	0	0	0	0	0	0	0	0	0	0
2.7	0	0	0	0	0	0	0	0	0	0	0	0	0	0	0	0	0	0
2.705	0	0	0	0	0	0	0	0	0	0	0	0	0	0	0	0	0	0
2.71	0	0	0	0	0	0	0	0	0	0	0	0	0	0	0	0	0	0
2.715	0	0	0	0	0	0	0	0	0	0	0	0	0	0	0	0	0	0
2.72	0	0	0	0	0	0	0	0	0	0	0	0	0	0	0	0	0	0
2.725	0	0	0	0	0	0	0	0	0	0	0	0	0	0	0	0	0	0
2.73	0	0	0	0	0	0	0	0	0	0	0	0	0	0	0	0	0	0
2.735	0	0	0	0	0	0	0	0	0	0	0	0	0	0	0	0	0	0
2.74	0	0	0	0	0	0	0	0	0	0	0	0	0	0	0	0	0	0
2.745	0	0	0	0	0	0	0	0	0	0	0	0	0	0	0	0	0	0
2.75	0	0	0	0	0	0	0	0	0	0	0	0	0	0	0	0	0	0
2.755	0	0	0	0	0	0	0	0	0	0	0	0	0	0	0	0	0	0
2.76	0	0	0	0	0	0	0	0	0	0	0	0	0	0	0	0	0	0
2.765	0	0	0	0	0	0	0	0	0	0	0	0	0	0	0	0	0	0
2.77	0	0	0	0	0	0	0	0	0	0	0	0	0	0	0	0	0	0
2.775	0	0	0	0	0	0	0	0	0	0	0	0	0	0	0	0	0	0
2.78	0	0	0	0	0	0	0	0	0	0	0	0	0	0	0	0	0	0
2.785	0	0	0	0	0	0	0	0	0	0	0	0	0	0	0	0	0	0
2.79	0	0	0	0	0	0	0	0	0	0	0	0	0	0	0	0	0	0
2.795	0	0	0	0	0	0	0	0	0	0	0	0	0	0	0	0	0	0
2.8	0	0	0	0	0	0	0	0	0	0	0	0	0	0	0	0	0	0
2.805	0	0	0	0	0	0	0	0	0	-49.2802	61.1329	1.18387	1.26906	0	-0.295707	3.56251	-4.41935	-0.0855826
